<svg xmlns="http://www.w3.org/2000/svg" viewBox="0 0 650 829.9"><defs><style>.cls-1,.cls-18,.cls-19{fill:#4ea5d9;}.cls-10,.cls-16,.cls-17,.cls-2,.cls-3,.cls-4,.cls-5,.cls-6,.cls-8,.cls-9{fill:none;}.cls-10,.cls-11,.cls-12,.cls-13,.cls-14,.cls-15,.cls-16,.cls-17,.cls-18,.cls-19,.cls-2,.cls-3,.cls-4,.cls-5,.cls-6,.cls-8,.cls-9{stroke:#4ea5d9;}.cls-10,.cls-11,.cls-12,.cls-13,.cls-14,.cls-15,.cls-19,.cls-2,.cls-3,.cls-4,.cls-5,.cls-6,.cls-8{stroke-linecap:round;stroke-linejoin:round;}.cls-14,.cls-2,.cls-9{stroke-width:4px;}.cls-3{stroke-width:1.5px;}.cls-4{stroke-width:0.75px;}.cls-11,.cls-16,.cls-6{stroke-width:3px;}.cls-7{fill:#e2eef6;}.cls-15,.cls-17,.cls-8{stroke-width:2px;}.cls-16,.cls-17,.cls-18,.cls-9{stroke-miterlimit:10;}.cls-10{stroke-width:6px;}.cls-11,.cls-12,.cls-14,.cls-15{fill:#fff;}.cls-13{fill:#2b82bc;}.cls-20{fill:#00496c;}</style></defs><g id="Layer_8" data-name="Layer 8"><path class="cls-1" d="M501.4,869.46a1,1,0,0,0,0-2,1,1,0,0,0,0,2Z" transform="translate(-72.8 -190.69)"/><path class="cls-1" d="M501.26,885.83a1,1,0,0,0,0-2,1,1,0,0,0,0,2Z" transform="translate(-72.8 -190.69)"/><path class="cls-1" d="M322.71,835.14a1.5,1.5,0,0,0,0-3,1.5,1.5,0,0,0,0,3Z" transform="translate(-72.8 -190.69)"/><path class="cls-1" d="M335.56,811.69c.13,10.4-1,21.22-6.88,30.11-1.77,2.69,2.56,5.2,4.32,2.52,6.31-9.59,7.7-21.4,7.56-32.63-.05-3.22-5.05-3.23-5,0Z" transform="translate(-72.8 -190.69)"/><path class="cls-1" d="M347.88,864.64a9.21,9.21,0,0,0,3.83,1,7,7,0,0,0,3.72-1.76,10.35,10.35,0,0,1,4.93-2.36,10,10,0,0,1,9.38,3.6c.91,1.13,2.58.76,3.54,0a8.92,8.92,0,0,1,7.85-1.46c1.68.48,3,1.39,4.82.78.75-.25,1.42-.69,2.15-1a15,15,0,0,1,2.63-.69c3.42-.62,7-.23,10.5-.11,1.71.07,3.47,0,5.16.24a3,3,0,0,1,2.48,1.18,2.52,2.52,0,0,0,3.93.51,7.26,7.26,0,0,1,4.93-2.48,8.12,8.12,0,0,1,2.86.27,6.43,6.43,0,0,1,1.27.53c1.07.59.09.34.45-.52l.64-1.1-.2.19,3.53,3.53c2.61-2.9,6.57-3.2,10.25-3l1.45.1a7.2,7.2,0,0,1,1.92.17c.46.2,0-.18.16,0s.47.95.7,1.3c1.16,1.75,3.65,2.94,5.55,1.54a2.57,2.57,0,0,0,.9-3.42,2.51,2.51,0,0,0-3.42-.89c.6-.26,1-.18,1.29.25-.13-.21-.25-.43-.36-.65a7.83,7.83,0,0,0-.74-1.21,4.64,4.64,0,0,0-3-1.78,35.21,35.21,0,0,0-6.88-.44c-4.18.12-8.48,1.33-11.36,4.53a2.5,2.5,0,0,0,3.53,3.53c2.1-1.94.66-4.76-1.32-6.07a11.91,11.91,0,0,0-5.36-1.8A12.42,12.42,0,0,0,409.26,861l3.93.51c-1.86-3.51-6.08-3.67-9.56-3.81-4.26-.16-8.61-.57-12.85,0a18.82,18.82,0,0,0-6,1.73c-.39.19-.71.12-.24.18a7,7,0,0,1-1.23-.52,12.44,12.44,0,0,0-2.69-.66,14.18,14.18,0,0,0-10.92,3.1h3.54a15,15,0,0,0-18.5-3.35,27.17,27.17,0,0,0-2.69,2,2.92,2.92,0,0,1-.75.46c-.54.06-1.61-.59-2.13-.78a2.5,2.5,0,1,0-1.33,4.82Z" transform="translate(-72.8 -190.69)"/><path class="cls-1" d="M358.32,797.47c.11-.57.05-.2,0-.08s-.16,0,0,.06a5,5,0,0,0,.54-.06c1.08.35,1.92,1.71,2.61,2.53a15.9,15.9,0,0,0,7.52,5c2.83.86,6.25.91,8.47-1.35,2.05-2.08,2.21-5.19,2-7.94l-4.91.66a11.36,11.36,0,0,0,10,8.3c2.6.23,5.33-.77,6.33-3.35.89-2.31.05-4.74-.91-6.88-1.07-2.4-4.58-1-4.66,1.26a17.77,17.77,0,0,1-.85,4.85,2.52,2.52,0,0,0,1.74,3.07,11.77,11.77,0,0,0,14.13-8.19l-4.91-.67a10.11,10.11,0,0,0,7.42,10.16c2.53.64,5.3.16,6.82-2.14s.94-5.17,0-7.61L405.06,797c.54,1.23.24,3.27.63,4.77a5.19,5.19,0,0,0,4.86,4c4.8.06,8.23-5.58,9.93-9.4l-4.66-1.26a19.2,19.2,0,0,0,0,4.73c.19,1.59.43,3.18,1.74,4.26a6.67,6.67,0,0,0,4.08,1,23,23,0,0,0,4.61-.3,19.71,19.71,0,0,0,7.72-2.75,7.54,7.54,0,0,0,2.71-3c.24-.52.41-1.07.64-1.59a1.15,1.15,0,0,0,.16-.37c.08-.5.55.09-.77.22l-2.41-1.84,2.38,6.43a2.51,2.51,0,0,0,4.83-1.33l-1.26-6.54c-.53-2.73-5.16-2.15-4.92.67a95.56,95.56,0,0,0,2.46,13.2q1.51,6.51,2.44,13.14a126.17,126.17,0,0,1,1.08,25.91,34,34,0,0,1-3.09,12.66l4.66,1.26c.06-4.85.92-9.64,1-14.49A63.75,63.75,0,0,0,442,832.3q-3.12-14.52-6.23-29c-.67-3.15-5.5-1.82-4.82,1.32L437,833.15a59,59,0,0,1,1.82,13.35c-.07,4.85-.93,9.64-1,14.49,0,2.38,3.53,3.53,4.66,1.26,3.84-7.75,4.13-16.55,3.94-25a150.76,150.76,0,0,0-3.18-27.44c-1-5-2.52-9.88-3-14.95l-4.91.66,1.26,6.54,4.83-1.33-2.39-6.43a2.56,2.56,0,0,0-2.41-1.83c-2.53.24-3.47,1.94-4.32,4.11-.57,1.45-2.49,2.18-4.05,2.7a18.59,18.59,0,0,1-6.7.93c-.14,0-1.31-.14-1.32-.13.13-.21.73,1.15.52-.14,0-.25-.07-.49-.09-.74a18.72,18.72,0,0,1,.1-4c.3-2.42-3.68-3.47-4.66-1.26a21.28,21.28,0,0,1-2.67,4.56c-.66.84-1.65,2.18-2.77,2.38-.15,0-.12,0-.17-.25a6.83,6.83,0,0,1-.21-1.45,13.46,13.46,0,0,0-1-4.65c-1.12-2.57-5.6-.72-4.57,1.93a6,6,0,0,1,.69,3.48c-.09.38-.37.28,0,.14a1.67,1.67,0,0,1-.77.07,4,4,0,0,1-1.26-.31,5.14,5.14,0,0,1-3-5.12c.19-2.84-4.21-3.35-4.91-.66a6.72,6.72,0,0,1-8,4.7l1.75,3.08a22.72,22.72,0,0,0,1-6.18l-4.65,1.27c.32.73.86,2,.52,2.73.06-.13.25-.19.07-.14a3,3,0,0,1-.83.15,4.94,4.94,0,0,1-1.57-.19,6.33,6.33,0,0,1-4.46-4.47c-.7-2.67-5.1-2.21-4.91.66.1,1.42.51,4.43-1.39,4.83-2.33.49-5.3-1.24-6.91-2.76-1.93-1.84-3.3-4.41-6.1-5.08s-6,.62-6.57,3.55a2.55,2.55,0,0,0,1.75,3.07,2.52,2.52,0,0,0,3.07-1.74Z" transform="translate(-72.8 -190.69)"/><path class="cls-1" d="M398.13,820.07c-7.35,2.08-10.63,7.54-11.44,14.82-.74,6.72,6.81,14.26,13.5,13.5,5.36-.6,9.53-2.08,13.18-6.06A18.25,18.25,0,0,0,417.61,826c-2.59-10.83-14.28-16.25-24.56-13.35l16.61,16.61a24.79,24.79,0,0,0,.07-12.77,27.22,27.22,0,0,0-2.27-5.47c-.39-.7-1.55-3.59-.86-1L390,826.55a141.67,141.67,0,0,0,27,1.86c11.2-.47,19.29-4.4,23.68-15.09h-26a49.35,49.35,0,0,1,1.34,9.27c0,.68,0,4.95.2,3.55.13-.89,1.76-1.88-.47-.2a18.3,18.3,0,0,0-2.89,3c1.47-1.77-4.64,5.11-2.54,3.4,1.69-1.39-1.3.45-1.72.69a19.88,19.88,0,0,0-5.61,4.45c-3.84,4.71-5.36,10.81-2.11,16.36,2.89,4.94,9.63,8.11,15.25,6.2,1.25-.43,2.94-.56,4.06-1.16,1.91-1-4.06-.88-1.66,0l-5.95-3.47.67.59-3.47-5.95.28.85,24.67-10.4c-5.5-7.4-13.05-12.25-22.6-11.73a25.45,25.45,0,0,0-9.6,2.59c-1.77.79-.25.64-2.28.87,1.1-.12-2.84-.15-2.85-.15-2.13-.11-4.26-.31-6.4-.37-8.22-.21-16,1.82-24,2.8-7.82,1-16.07.91-24,1.32l9.54,23A23.44,23.44,0,0,0,359,848.73a22.93,22.93,0,0,0,1.09-5.77l.08-1.52c0-1.5,0-1.33,0,.52l-3.47,5.95c1.71-2-1.08.37,1.16-.9a25.64,25.64,0,0,0,5.15-4.14,35.32,35.32,0,0,0,6.44-9.42c2.07-4.29,3.71-8.69,3.93-13.5.18-3.61-1-7.22-1-10.39l-23.05,9.55a24.52,24.52,0,0,0,11.7,7,45.09,45.09,0,0,0,6.57,1c1.1.12,2.2.2,3.3.25,1.9.08,2.21.11.91.09l-8.07-6.2c.29.55.8,3.43,1.14,4.66l.8,2.85q.79,3.6.07-1.65l3.47-6c.7-.88,4.81-1.14,2.77-1.17A29.13,29.13,0,0,0,366,821c-7.14,1.52-11.28,9.87-9.43,16.61,2,7.38,9.45,10.95,16.61,9.42,5.2-1.11,10.8-1.9,15.22-6.7,5.69-6.18,4.68-14.1,2.61-21.51s-4-15.31-12.53-17.49a36.38,36.38,0,0,0-9.14-1c.94,0-.93-.21-1-.23.59.11,2.31,2.23.21-.09-8-8.89-23-1.71-23,9.54,0,3.6,1.63,7.54.72,10.22a28.78,28.78,0,0,1-1.44,2.89c-1.52,3.13.09.3-1,1.36-4.07,4.08-7.55,4.63-9.57,10.75-.5,1.52-1.75,4.24-1,5.67,0,1.19,0,1.33.1.4,1.67-2.33,1.7-2.67.11-1-8.46,7.73-2,23.64,9.55,23,6.81-.35,13.64-.61,20.46-1.06s13.35-2.1,19.88-2.85c6.92-.79,13.83.82,20.7-.11,1.25-.17,10.78-3.53,10.74-3.56.27.24-2,.33-2.06.32-.74-.28-.88-.87-1.31-1.44,4,5.39,10.25,8.42,16.86,5.52,5.86-2.58,10-9.42,7.81-15.93-4.08-12.38-16.38-13.41-27.14-9.75L422,856.58c-.63.77-1.13.51.15-.23.75-.43,1.58-.72,2.33-1.16a23.06,23.06,0,0,0,6.8-6.2c2-2.65,1-1.71,3-3.49a29.79,29.79,0,0,0,5.45-6.19c5.74-9.47,3.22-23,.93-33.17-1.3-5.74-7.29-9.91-13-9.91-6.42,0-10.72,4.34-13,9.91l-.56,1.35,3.47-6q-2.28,2.54,1.19-.22c1.16-.06.89-.05-.81,0-2.5.11-5,.16-7.51.12a99,99,0,0,1-13.22-1c-9.84-1.48-19.54,5.78-16.6,16.61a15.89,15.89,0,0,0,2.57,6c1.94,2.36-.06,1.3.48-1-2.29,9.85,6.39,19.5,16.61,16.61q-6.63,1.13-5-7.4-4.23-5.06-.76-8.15l6.82-1.84-1.1.12,13.5,13.5.1-.87-4,9.54.58-.68-6,3.47.85-.24a13.51,13.51,0,0,0-7.18-26Z" transform="translate(-72.8 -190.69)"/><path class="cls-1" d="M385.44,862.25c17.38,0,17.41-27,0-27s-17.4,27,0,27Z" transform="translate(-72.8 -190.69)"/><path class="cls-1" d="M455.13,813.78c-.14,11.24,1.25,23,7.56,32.64,1.76,2.68,6.09.17,4.31-2.52-5.84-8.9-7-19.71-6.87-30.12,0-3.22-5-3.22-5,0Z" transform="translate(-72.8 -190.69)"/><path class="cls-1" d="M441.19,859.39a15.68,15.68,0,0,1,3.58,3.6,2.56,2.56,0,0,0,2.49,1.2,2.45,2.45,0,0,0,2.08-1.8c.47-3.08-.67-5.53-1.52-8.42a4.8,4.8,0,0,1,0-3.34,11.64,11.64,0,0,1,2.33-3.2c4.37-4.78,8.89-10.16,7.37-17.12l-4.82,1.33a149.76,149.76,0,0,0,6.44,14.56l3.42-3.42a10.26,10.26,0,0,1-3.6-3.57,2.53,2.53,0,0,0-4.32,0l-6.93,11.54c-1,1.74-2.7,3.71-2.6,5.84.11,2.34,2.63,4.25,4.87,3.19,1.11-.53,1.54-1.68,2.1-2.71l1.6-3a30.23,30.23,0,0,1,2.9-5.07,3.13,3.13,0,0,1,1.28-.93c.09,0,.28,0,.33,0a3.33,3.33,0,0,0,0-.94c-.07,0-1,.72-1.2.83-.67.33-1.36.6-2,.94-2,1-2.82,2.53-3.72,4.47a7.26,7.26,0,0,1-3.72,3.66,2.52,2.52,0,0,0-.9,3.42,2.56,2.56,0,0,0,3.42.9,11.57,11.57,0,0,0,4.36-3.58,10.91,10.91,0,0,0,1.33-2.26,5.56,5.56,0,0,1,.95-1.81c1.06-1,2.71-1.22,3.88-2.05,1.59-1.12,2.92-3,2.41-5-1.15-4.55-7-4.19-9.72-1.43a21.92,21.92,0,0,0-3.26,5.1q-1.59,3-3.19,5.91l1.5-1.15.07,0,1.26.34.42,1.08.18-.3a3.4,3.4,0,0,0,.48-.8l1.14-1.89,2.39-4,4.67-7.76h-4.32a15.51,15.51,0,0,0,5.39,5.35c2.25,1.34,4.52-1.26,3.42-3.42a138.44,138.44,0,0,1-5.93-13.36,2.5,2.5,0,0,0-4.82,1.33c1.3,5.91-4.69,10.21-7.81,14.31a10,10,0,0,0-2.17,8.07,25.56,25.56,0,0,0,1.18,3.82,7.36,7.36,0,0,1,.65,3.23l4.57-.6a22.8,22.8,0,0,0-5.38-5.4,2.52,2.52,0,0,0-3.42.9,2.56,2.56,0,0,0,.9,3.42Z" transform="translate(-72.8 -190.69)"/><path class="cls-1" d="M417.76,798.47c3.22,0,3.23-5,0-5s-3.22,5,0,5Z" transform="translate(-72.8 -190.69)"/><path class="cls-1" d="M417.76,798.3c3.22,0,3.23-5,0-5s-3.22,5,0,5Z" transform="translate(-72.8 -190.69)"/><path class="cls-1" d="M418.29,798c3.22,0,3.22-5,0-5s-3.22,5,0,5Z" transform="translate(-72.8 -190.69)"/><path class="cls-2" d="M506.66,723.72c-10.13,22.8-25.63,40.08-43.55,57.13" transform="translate(-72.8 -190.69)"/><path class="cls-3" d="M432.2,796.59s2.64-7.89,7.61-3.41" transform="translate(-72.8 -190.69)"/><path class="cls-4" d="M431.45,788.68s2.41-7.19,6.93-3.11" transform="translate(-72.8 -190.69)"/><path class="cls-5" d="M409.27,863.89s.27,1.9,1.27,1.22a2.71,2.71,0,0,0,1-1.22" transform="translate(-72.8 -190.69)"/><path class="cls-5" d="M422.76,864.34s.65,1.42,1.18,1.42.67,0,1.38-.82l.71-.79" transform="translate(-72.8 -190.69)"/><path class="cls-5" d="M441.08,862.54s-.34,2.67,3,3.46c2.2.53,4.74-2.54,4.74-2.54" transform="translate(-72.8 -190.69)"/><path class="cls-2" d="M486,756.54S469.43,793,469.33,810.19c-.09,16.55,3,19.84,4.25,21.52" transform="translate(-72.8 -190.69)"/><path class="cls-2" d="M288.49,723.64c10.14,22.8,25.64,40.09,43.55,57.13" transform="translate(-72.8 -190.69)"/><path class="cls-3" d="M363,796.51s-2.65-7.88-7.61-3.41" transform="translate(-72.8 -190.69)"/><path class="cls-5" d="M378.92,794.6s-1-3.13-3-1.35" transform="translate(-72.8 -190.69)"/><path class="cls-4" d="M363.71,788.6s-2.41-7.18-6.93-3.11" transform="translate(-72.8 -190.69)"/><path class="cls-5" d="M385.89,863.81s-.27,1.9-1.27,1.22a2.78,2.78,0,0,1-1.06-1.22" transform="translate(-72.8 -190.69)"/><path class="cls-5" d="M372.4,864.26s-.66,1.42-1.18,1.42-.67,0-1.38-.82l-.71-.79" transform="translate(-72.8 -190.69)"/><path class="cls-5" d="M354.07,862.46s.34,2.67-3,3.46c-2.2.53-4.74-2.54-4.74-2.54" transform="translate(-72.8 -190.69)"/><path class="cls-2" d="M309.17,756.46s16.55,36.41,16.65,53.65c.1,16.55-3,19.84-4.24,21.52" transform="translate(-72.8 -190.69)"/><path class="cls-6" d="M503.69,895.13s-6.12-21.08-14.49-29.07c0,0,18.82,41.42-19.87,76.1" transform="translate(-72.8 -190.69)"/><path class="cls-6" d="M491,843.65s13.53,8.12,12.74,51.48" transform="translate(-72.8 -190.69)"/><path class="cls-6" d="M291.47,895.05S297.59,874,306,866c0,0-18.83,41.42,19.87,76.11" transform="translate(-72.8 -190.69)"/><path class="cls-6" d="M304.21,843.58s-13.53,8.11-12.74,51.47" transform="translate(-72.8 -190.69)"/><path class="cls-1" d="M486.36,624.11l3,7,4.32-2.52c-1.43-2.89-2.66-6-4.36-8.76-2-3.16-5.64-1.88-7.58.51a27.12,27.12,0,0,1-5.28,5.42,21.83,21.83,0,0,1-7.24,3.35,2.52,2.52,0,0,0-1.84,2.41c1.21,9.11,8.6,16.58,17.93,17.08a19.61,19.61,0,0,0,12.39-3.72c4.08-3,6.28-7.34,8.31-11.85,2.48-5.55,4.22-11.49,1.65-17.32-.68-1.55-2.86-1.49-3.93-.51a25.69,25.69,0,0,0-6.21,9.51,44.93,44.93,0,0,0-1.62,4.92,33,33,0,0,1-1.35,5c-.4.89-.7,1.08-1.51.4-1.4-1.18-1.72-3-2.67-4.42-.1-.56-.18-.51-.22.14l.06-.06c-.06,0,.74-.32.68-.31a2.25,2.25,0,0,1,1.51.14,2.16,2.16,0,0,1,1,2.69l3.93-.51c-.07-.08,0-.08,0-.12.79-3.12-4-4.45-4.82-1.33a5.33,5.33,0,0,0,1.25,5,2.52,2.52,0,0,0,3.93-.51c1.83-4,.07-9.16-4.54-10.2a7.15,7.15,0,0,0-6,1.24c-2.25,1.76-2.08,4.16-1,6.55,1.59,3.61,4.86,8.57,9.55,6.81,4-1.5,4.28-6.64,5.31-10.16,1.23-4.2,3-8.26,6.28-11.26l-3.93-.51c1.63,3.68.15,8.08-1.33,11.55-1.54,3.62-3.22,7.61-6.22,10.27a14.21,14.21,0,0,1-17.89.71,14.59,14.59,0,0,1-5.52-9.24l-1.83,2.41A26.24,26.24,0,0,0,483,626.6c.83-.88,1.54-1.84,2.28-2.78.23-.3.5-.55.75-.83s.4-.23.11-.14a.57.57,0,0,1-.64-.15c-.73-.31-.41-.09-.2.32,1.35,2.69,2.67,5.4,4,8.1a2.52,2.52,0,0,0,3.42.9,2.56,2.56,0,0,0,.9-3.42l-3-7a2.53,2.53,0,0,0-3.43-.9,2.57,2.57,0,0,0-.89,3.42Z" transform="translate(-72.8 -190.69)"/><path class="cls-1" d="M490.19,622.17c-.38-1.06-11.48,7-12.35,6.77-7.63-1.94-10.27,8.84-3.19,11.57a47.36,47.36,0,0,0,15.87,3.09l-1.6-11.78-6.71,1.74,3.19,11.57c6.42-2,14.05-4.71,19-9.47,4.68-4.52,6.5-13.51,4.45-19.59-1.7-5-7.77-11-13.22-11.61-7.71-.89-9.41,10.5-11.28,15.76-2.6,7.28,9,10.42,11.57,3.19l1.81-5.08c.34-1,2.55-4.51.13-2.79l-4.63.6c4.46,1.47,5.64,6.6,3.11,10.32s-9.93,5.81-14.11,7.1c-7.37,2.25-4.32,13.51,3.19,11.57l6.71-1.74c6.67-1.73,5.1-11.59-1.59-11.79a37.34,37.34,0,0,1-12.68-2.66l-3.19,11.57c7.6,1.94,11.88-3.69,18.3-6.37,6-2.51,11.37-8.18,8.81-15.16-2.63-7.2-14.23-4.09-11.57,3.19Z" transform="translate(-72.8 -190.69)"/><path class="cls-1" d="M500.93,574.31c-2.08,4.93-5.13,9.34-7,14.36s-3,10.51-4.41,15.8-3.16,10.82-6.44,15.44c-1.86,2.63-4.55,5.91-1.84,9.06,6.11,7.13,12.94-9.5,14.75-13a69.9,69.9,0,0,0,8.1-30.77c.1-3.44-4.95-4-5.9-.8-2,6.79-1.84,13.71-1.16,20.7.29,2.88.5,5.62,1.92,8.19,1.76,3.18,3.53,5.62,4.32,9.32.62,2.94,5.06,2.78,5.78,0a41.53,41.53,0,0,0,1-16.34c-.38-2.41-1.62-4.35-2.56-6.57a37.87,37.87,0,0,1-2.27-10.37c-.45-3.73-6.2-4-6,0,.46,9.15.12,18.92,4.16,27.35,1,2,4.19,1.91,5.18,0a13.65,13.65,0,0,0,1.73-7.75l-4.51,2.59c3.43,2.31.41,11.33-.57,14.44-1.24,4-2.89,7.76-6.55,10-3.28,2-.27,7.21,3,5.18,6.07-3.74,8.73-10.47,10.28-17.16,1.36-5.84,2.54-13.82-3.16-17.66a3,3,0,0,0-4.52,2.59,6.5,6.5,0,0,1-.91,4.72h5.18c-3.5-7.3-2.94-16.39-3.34-24.32h-6c.53,4.44,1.06,8.93,2.88,13.06A27.74,27.74,0,0,1,503.23,621H509c-1.23-5.8-5.27-10-6-15.91-.81-6.36-.88-12.93.95-19.11l-5.89-.79a60.84,60.84,0,0,1-6.5,26.2c-1.58,3.18-5,7.18-5.72,10.55l-.88,1.42q1.37,2.68,2.26.9c1.2-.44,2.6-3.78,3.19-4.88,3.54-6.65,5-14,6.85-21.26,2.11-8,6.28-14.68,9.47-22.23,1.49-3.55-4.31-5.1-5.79-1.59Z" transform="translate(-72.8 -190.69)"/><path class="cls-1" d="M289.36,576.59c3.84,6.54,5.13,13.16,7.29,20.28.86,2.84,2.33,5.36,3.46,8.08,1.39,3.33,2,6.9,3.37,10.25,3.77,9.43,12.29,18.44,22.72,19.58l-2.9-3.8c-1.18,2.83-2.49,5.93-4.71,8.12-2.88,2.83-6.8,3.07-10.63,3.24-3.2.14-4.29,5.27-.79,5.89l5.38.95.8-5.9c-6.45-.75-12.88-2.57-16.82-8.12-3.36-4.73-4.63-10.56-5.92-16.11-.8-3.46-5.66-2.43-5.89.8-.18,2.51-2.61,15.32,4.18,12.57a3.1,3.1,0,0,0,2.1-3.69c-.93-4.39-2-8.93-1.55-13.46.38-4.27,2.32-7.95,4.19-11.74,3.21-6.51,4.95-13,4.18-20.29-.39-3.76-5.92-4-6,0-.1,5.37-2.75,9-4.61,13.81-1,2.58-2,6.37,0,8.75,5,5.86,11-3.91,12.51-7.71l-5.9-.8a31,31,0,0,1-3.19,13.5c-1.55,3.37-2.87,6.46-2.78,10.24h6l-.62-5c-.12-.92-.92-4.1-.62-5a4.79,4.79,0,0,1,3.14-2.31q1.32-1.18,1.89.78a7.08,7.08,0,0,1,.5,2.48c.36,4.13-1.87,5.59-4.37,8.28a13,13,0,0,0-3.29,7c-.62,3.78,5.15,5.41,5.78,1.6.85-5.07-.89-13.7,4.82-16.19l-4.51-2.59c.25,3.16-.86,5-2.7,7.49a8,8,0,0,0-1.8,3.61c-.82,4.57,2.81,9.94,4.5,14l4.41-3.39a3.26,3.26,0,0,1-2.53-3.11c-.18-2.77-4.14-4.34-5.59-1.52-3.19,6.19.62,11.2,6.68,12.7,7.46,1.83,16.37,6.24,23.08-.38,1.73-1.7,3.1-4.38,1.65-6.65-1.73-2.69-4.78-1.6-7.27-1-4.42,1.07-13.95,2.26-17-2.46-2.71-4.28,3.85-9.47,5.49-13.36l-5.49-.71c.34,2.18-2.91,6.16-3.15,8.72a9.65,9.65,0,0,0,1.62,6.65c3.56,4.83,11.08,2.92,16.15,2.67l-.8-5.89a6.43,6.43,0,0,1-5.59-1.09c-1.36-.86-5-4-3.65-5.89L302,622c.79,0,3.91,3.43,4.59,4.05,1.78,1.62,3.46,3.33,5.11,5.08,2.65,2.82,6.89-1.43,4.24-4.24s-16.53-18.18-17.58-6.34c-.73,8.19,9.83,14.87,17.07,12.72,3.14-.93,2.68-6.06-.8-5.89-3.66.18-13,2.41-11.54-4,.82-3.71,3.33-5.68,2.71-9.66-.38-2.43-4.51-3-5.49-.71-1.55,3.67-5.14,5.84-6.52,9.42s-.29,8.65,2.14,11.54c2.64,3.12,7,4.07,10.89,4.51a32.18,32.18,0,0,0,7.47,0c.85-.11,1.71-.23,2.54-.4s3.76-.42,2.93-1.25l-.77-2.92c-.78,5.14-10.37,2.93-13.2,1.82-2.33-.92-9.63-1.89-7.78-5.48l-5.59-1.51c.24,3.75,2,6.76,5.5,8.29,2,.88,5.55-.66,4.41-3.39-1-2.37-2-4.73-3-7.1-1.16-2.82-1.5-3.7.15-6.31,2.09-3.32,3.35-6,3-10.1a3.05,3.05,0,0,0-4.52-2.59c-8.07,3.52-6.39,12.7-7.57,19.77l5.78,1.6c1-5.82,7.22-8.1,7.88-14.39.4-3.88-.6-9.72-4.39-11.76-3.36-1.81-9.29,1.11-11.66,3.7-3.21,3.5-.75,10.44-.24,14.55.46,3.71,6.09,4,6,0-.11-4.57,2.79-8.32,4.24-12.51a34.5,34.5,0,0,0,1.73-11.23c0-3.6-4.69-3.78-5.89-.8a13.75,13.75,0,0,1-1.55,2.94q-2.61,2.45,0,.94a61.37,61.37,0,0,0,2.84-6,26,26,0,0,0,2.62-11.12h-6c1,9.4-3.15,15.54-6.46,23.87-3.05,7.67-1.81,15.37-.15,23.21l2.1-3.69c2.57-1,2.82,1.27,3.1-2.49l.31-4.29-5.9.79c1.7,7.29,3.65,14.85,8.86,20.5s12.43,7.3,19.67,8.14c3.33.39,4.12-5.31.8-5.89l-5.39-.95-.8,5.9c5-.22,9.86-.72,13.82-4,3.63-3,5.52-7.45,7.31-11.72.83-2-1.21-3.61-2.89-3.8-5.91-.65-10.45-5.27-13.79-9.85s-4.3-9.9-6.32-15.19c-.79-2-1.9-3.94-2.75-6-1.3-3-1.69-6.31-2.53-9.48a59.45,59.45,0,0,0-6.27-14.75c-2-3.33-7.14-.31-5.18,3Z" transform="translate(-72.8 -190.69)"/></g><g id="Layer_4" data-name="Layer 4"><path class="cls-7" d="M485.93,612.14s17.19,19.37,17.19,25,10.34-13.27,8.76-18.88S491,602.15,489.42,602.15,485.93,612.14,485.93,612.14Z" transform="translate(-72.8 -190.69)"/><path class="cls-7" d="M309.05,612.14s-17.19,19.37-17.19,25-10.33-13.27-8.76-18.88,20.93-16.12,22.47-16.12S309.05,612.14,309.05,612.14Z" transform="translate(-72.8 -190.69)"/><path class="cls-7" d="M470.45,639s11.84,12.7,29.65,3.53c0,0-7.16,11.24-19.71,6.89C469.63,645.72,470.45,639,470.45,639Z" transform="translate(-72.8 -190.69)"/><path class="cls-7" d="M325.64,639s-11.84,12.7-29.64,3.53c0,0,7.15,11.24,19.7,6.89C326.47,645.72,325.64,639,325.64,639Z" transform="translate(-72.8 -190.69)"/></g><g id="Layer_7" data-name="Layer 7"><path class="cls-1" d="M440.37,542.45c-.83,4.25-1.69,8.58-1.52,12.93a35.22,35.22,0,0,0,2.67,11.83,11.14,11.14,0,0,0,3.13,4.52,15.32,15.32,0,0,0,5.41,2.6,17.62,17.62,0,0,0,10.49.11,11.79,11.79,0,0,0,5-3.27c1.32-1.49,2.29-3.26,3.79-4.6a2.51,2.51,0,0,0,0-3.53,2.55,2.55,0,0,0-3.53,0,12,12,0,0,1-5.73,2.05,40.11,40.11,0,0,1-7.18.38,6.1,6.1,0,0,1-4.95-2.13c-1.27-1.7-1.73-3.93-2.2-6l-4.18,2.43a35,35,0,0,0,10.58,8.08,2.57,2.57,0,0,0,3.42-.9,2.53,2.53,0,0,0-.9-3.42,31.14,31.14,0,0,1-9.56-7.29c-1.74-2-4.72.14-4.18,2.43a19.87,19.87,0,0,0,3,7.58,10.87,10.87,0,0,0,8.15,4.13,39,39,0,0,0,9-.48,16.66,16.66,0,0,0,8.21-3.37L465.81,563a43.35,43.35,0,0,0-3.67,4.45A7.26,7.26,0,0,1,458,570a11.87,11.87,0,0,1-4.6,0,13,13,0,0,1-5.38-1.93c-1.4-1-2-2.79-2.48-4.4a43,43,0,0,1-1.52-6.11c-.67-4.6.28-9.27,1.16-13.77a2.57,2.57,0,0,0-1.74-3.08,2.54,2.54,0,0,0-3.08,1.75Z" transform="translate(-72.8 -190.69)"/><path class="cls-1" d="M438.29,544.89c.1.54-.82,1.37-1.14,1.7-.85.88-1.78,1.69-2.62,2.59a44.85,44.85,0,0,0-4.65,5.9,71.27,71.27,0,0,0-6.62,13.14,92.46,92.46,0,0,0-4.7,15.17c-1.09,5.16-1.91,10.69-1.35,16a21.28,21.28,0,0,0,2.46,8.12c1.23,2.27,2.73,4.35,3.1,7l3.08-3.08c-.71-.29-1.11-1.62-1.31-2.46a32.05,32.05,0,0,1-.55-5.18c-.28-4.25-.45-8.5-.48-12.75a54.78,54.78,0,0,1,.8-12.4,38.53,38.53,0,0,1,4-10.14,119.85,119.85,0,0,1,7.07-10.93l-4.57-1.92a29.08,29.08,0,0,1-3.11,7.68,69.89,69.89,0,0,0-3.7,8.18A58.26,58.26,0,0,0,420.54,589c-.13,3.22,4.87,3.21,5,0A54.08,54.08,0,0,1,429,572.35c2-5.22,5.52-9.91,6.65-15.43a2.51,2.51,0,0,0-4.56-1.93c-4.8,6.84-9.72,14-11.57,22.27a61.62,61.62,0,0,0-1,14q.08,7.11.61,14.21c.32,4.3.91,8.92,5.4,10.75,2,.82,3.3-1.45,3.07-3.07a18.55,18.55,0,0,0-2.71-6.59A18.81,18.81,0,0,1,422.3,600c-.8-4.89,0-10.24,1-15a91.77,91.77,0,0,1,4.68-15.2,63.77,63.77,0,0,1,6.66-12.83,36.19,36.19,0,0,1,5-5.82c2.19-2.08,4-4.33,3.41-7.53a2.53,2.53,0,0,0-3.08-1.75,2.56,2.56,0,0,0-1.74,3.08Z" transform="translate(-72.8 -190.69)"/><path class="cls-1" d="M555.26,490.08A58.18,58.18,0,0,1,562,509a55.61,55.61,0,0,1,.75,9.81c0,3.35-.15,6.84-1.4,10a2.5,2.5,0,0,0,1.74,3.07,2.55,2.55,0,0,0,3.08-1.74c1.38-3.46,1.54-7.42,1.58-11.1a62.59,62.59,0,0,0-8.16-31.47c-1.58-2.8-5.91-.28-4.31,2.53Z" transform="translate(-72.8 -190.69)"/><path class="cls-1" d="M351.36,542.91c5.61,8.05,11.41,16.23,15.05,25.39a75.81,75.81,0,0,1,4,14.82,66.12,66.12,0,0,1,1.26,13.17,24.78,24.78,0,0,1-4,13.66l4.57,1.93a83.33,83.33,0,0,0,3.4-15.77c.61-5.17,1.12-10.74-.74-15.71-.87-2.33-2-4.54-3-6.82-.84-2-1.57-3.94-2.3-5.94-1.54-4.22-3-8.47-4.77-12.6a44.24,44.24,0,0,0-8-12.79,2.52,2.52,0,0,0-4.18,1.1c-1.42,4.46-.37,9-1.13,13.56a12.51,12.51,0,0,1-5.37,8.19,16.08,16.08,0,0,1-9.67,2.92c-2.67-.11-6.21-1.18-7.26-3.93l-3.07,3.07a22.84,22.84,0,0,0,7.69,1.35,47.91,47.91,0,0,0,7.67-.17c4.7-.59,9.87-3.32,10.62-8.49h-4.82a11.69,11.69,0,0,0,1.05,3.32,9.61,9.61,0,0,0,1,1.56c.09.14.4.68.54.71s0,.41.12-.24-.16,0-.23.16a6.5,6.5,0,0,1-.37.63,7.3,7.3,0,0,1-.69,1,9.42,9.42,0,0,1-2.12,1.86,9.23,9.23,0,0,1-10.59-.5,2.58,2.58,0,0,0-3.54,0,2.52,2.52,0,0,0,0,3.53,14.36,14.36,0,0,0,16.66,1.29,14.12,14.12,0,0,0,5.35-6c.85-1.9.31-3.37-.85-5a7.73,7.73,0,0,1-1.47-3.63c-.36-2.38-4.47-2.39-4.82,0-.53,3.65-4.34,4.8-7.55,5-4,.24-8.49.34-12.28-1.16a2.52,2.52,0,0,0-3.08,3.08c2.64,6.94,10.91,8.6,17.46,7,6.78-1.64,13.09-6.92,14.44-14,.87-4.54-.25-9.33,1.17-13.77l-4.18,1.1c5.67,6.1,8.28,14.19,11,21.87,1.49,4.15,3.16,8.18,5,12.18a18.28,18.28,0,0,1,1.84,6.59,51.47,51.47,0,0,1-.26,7.55,77,77,0,0,1-3.44,16.58c-.91,2.83,3,4.16,4.57,1.93,5.56-8.13,5.15-18.47,3.71-27.77A85.84,85.84,0,0,0,372,569a82.33,82.33,0,0,0-6.66-14c-3-5.06-6.32-9.88-9.68-14.69a2.56,2.56,0,0,0-3.42-.9,2.53,2.53,0,0,0-.9,3.42Z" transform="translate(-72.8 -190.69)"/><path class="cls-1" d="M353.61,563.66c3.21,0,3.22-5,0-5s-3.23,5,0,5Z" transform="translate(-72.8 -190.69)"/><path class="cls-1" d="M369.55,582.33c.1.56.19,1.12.26,1.68l-.09-.66a39.54,39.54,0,0,1,.33,4.61,2.5,2.5,0,0,0,5,0,41.76,41.76,0,0,0-.68-7,2.49,2.49,0,0,0-1.15-1.49,2.48,2.48,0,0,0-3.42.89,2.8,2.8,0,0,0-.25,1.93Z" transform="translate(-72.8 -190.69)"/><path class="cls-1" d="M421.53,590.33v2.1a2.75,2.75,0,0,0,.73,1.77,2.05,2.05,0,0,0,.81.52,1.93,1.93,0,0,0,1,.21l.66-.09a2.53,2.53,0,0,0,1.11-.64l.39-.51a2.53,2.53,0,0,0,.34-1.26v-2.1a1.84,1.84,0,0,0-.22-1,1.93,1.93,0,0,0-.51-.81A2,2,0,0,0,425,588a2,2,0,0,0-1-.21l-.67.09a2.5,2.5,0,0,0-1.1.64l-.39.51a2.43,2.43,0,0,0-.34,1.26Z" transform="translate(-72.8 -190.69)"/><path class="cls-1" d="M236,488.1c.07,1.22-.74,2.11-1.66,3.06a30.55,30.55,0,0,0-3.42,3.77c-2.24,3.18-2.66,7.22-3.05,11-.29,2.81,4.28,3.38,4.91.66l1.25-5.35.57-2.44a7.17,7.17,0,0,0,.29-1.15c0-.71.33,1.77-1.73-.14l-.64-2.43c-4.36,11-7.58,23.36-3.35,34.91a2.57,2.57,0,0,0,3.08,1.75,2.52,2.52,0,0,0,1.74-3.08c-3.94-10.75-.7-22.05,3.35-32.25a2.44,2.44,0,0,0-.64-2.43c-2.49-2.31-5.73-.53-6.64,2.34s-1.41,6-2.1,8.95l4.91.66c.34-3.3.75-6.81,3.13-9.32s5.21-4.77,5-8.48c-.18-3.2-5.18-3.22-5,0Z" transform="translate(-72.8 -190.69)"/><path class="cls-1" d="M511.59,452.88a13.73,13.73,0,0,1,5.93-6.53c1.53-.86,3.27-1.3,4.61-2.48a5.19,5.19,0,0,0,1.65-5.18,2.53,2.53,0,0,0-3.67-1.5c-2.71,1.38-5.55,2.63-8.15,4.21-2.44,1.48-4.66,3.69-5.13,6.61a2.58,2.58,0,0,0,1.74,3.08,2.53,2.53,0,0,0,3.08-1.75c2-8.09,5.26-15.72,8.61-23.31l-4.66-1.26a106.07,106.07,0,0,1-1,14.9,2.53,2.53,0,0,0,1.45,2.95,2.48,2.48,0,0,0,3.12-1l2.12-4.4-4.57-.6.62,4.36,1.75-3.07c.34,0,.28,0-.16-.12l-.76-.26a5.94,5.94,0,0,0-1.82-.31,6.18,6.18,0,0,0-3.13,1,8.7,8.7,0,0,0-2.23,2.09c-.38.48-.73,1-1.11,1.48a3.55,3.55,0,0,1-.35.44c-.41.36-.29.35.37,0l1.27.34,0,.06.64,1.11c.25.64-.22.55,0,.23a4.71,4.71,0,0,0,.48-.95,22.32,22.32,0,0,0,1-2.38,21.38,21.38,0,0,0,.93-4.83,2.52,2.52,0,0,0-2.5-2.5,2.57,2.57,0,0,0-2.5,2.5,6.12,6.12,0,0,1-.48,1.63l4.66,1.26c.15-3.11,1.82-5.87,3.32-8.52a85.68,85.68,0,0,0,4.68-9.64,78.51,78.51,0,0,0,5.22-20.5c.27-2.23-2.87-3.2-4.27-1.77-1.94,2-2.66,5.17-3.64,7.71-1,2.71-2.09,5.42-3.12,8.13q-3.14,8.19-5.53,16.64c-.88,3.1,3.95,4.42,4.83,1.33q2.26-8,5.2-15.82c.93-2.46,1.89-4.92,2.84-7.38l1.56-4a8.75,8.75,0,0,1,1.4-3L521.64,400a72.41,72.41,0,0,1-5.31,19.82,101,101,0,0,1-4.64,9.1c-1.69,3.06-3.1,6.21-3.27,9.74-.12,2.38,3.63,3.54,4.65,1.26a14.27,14.27,0,0,0,1.17-4.15h-5a17.51,17.51,0,0,1-1.82,5.91c-1.06,2.27-.45,5.5,2.62,5.51,2.52,0,3.56-2.36,5-4,.55-.62,1-1.07,1.81-.83a6.83,6.83,0,0,0,3.58.38c1.44-.28,1.92-1.83,1.74-3.07l-.62-4.37c-.3-2.1-3.69-2.43-4.57-.59l-2.12,4.4,4.57,1.92a115.94,115.94,0,0,0,1.19-16.23c0-2.32-3.61-3.63-4.66-1.26-3.52,8-7.06,16-9.11,24.5l4.82,1.33c.35-2.17,2.12-3.27,3.93-4.24,2.33-1.24,4.7-2.4,7-3.59L519,440c.08.32-2.32,1.21-2.62,1.34a18.57,18.57,0,0,0-4,2.53,19.1,19.1,0,0,0-5.54,7.66,2.52,2.52,0,0,0,1.74,3.08,2.56,2.56,0,0,0,3.08-1.75Z" transform="translate(-72.8 -190.69)"/><path class="cls-1" d="M282.28,448.07c.17.31.32.62.47.93s-.06-.2,0,.08.12.33.18.49a12.75,12.75,0,0,1,.48,2l4.82-1.33c-.14-.47-.27-.95-.37-1.43a2.78,2.78,0,0,1-.11-.63c0,.59,0-.06,0-.17a8.85,8.85,0,0,0-.61-3.35,4.78,4.78,0,0,0-2.71-2.22,25.26,25.26,0,0,0-2.58-.57c-.49-.12.46.26,0,0l-.39-.22c-.08-.05-.56-.43-.24-.15s-.16-.14-.22-.19c-.51-.46-1-1-1.42-1.46a11.11,11.11,0,0,0-3.49-2.84,2.56,2.56,0,0,0-3.42.89c-.58,1.09-.38,2.86.89,3.42a6.35,6.35,0,0,1,.81.44l.25.18-.26-.21c0,.1.33.28.41.36a18.66,18.66,0,0,1,1.32,1.35,11.68,11.68,0,0,0,3.24,2.75,8.51,8.51,0,0,0,2.6.79c.38.06.77.24,1.14.28-.34-.15-.39-.16-.15,0l.14.09c-.29-.23-.33-.25-.14-.06l-.2-.24c-.34-.55,0-.08,0,.09-.05-.36-.06-.39,0-.11v.19c0,.41.06.83.11,1.24a16.8,16.8,0,0,0,.63,3.14,2.5,2.5,0,0,0,4.82-1.33,14.45,14.45,0,0,0-1.66-4.72,2.5,2.5,0,0,0-4.32,2.52Z" transform="translate(-72.8 -190.69)"/><path class="cls-1" d="M278.88,439.09c.35-6.27.75-12.54,1.05-18.81a17.76,17.76,0,0,0-.29-4.6,20.2,20.2,0,0,0-1.58-4.1,49.83,49.83,0,0,1-3-8.47c-.8-3.11-5.62-1.79-4.82,1.33a54.37,54.37,0,0,0,2.93,8.41,25.31,25.31,0,0,1,1.53,3.74,12.89,12.89,0,0,1,.19,4.16c-.32,6.11-.68,12.23-1,18.34-.17,3.22,4.83,3.21,5,0Z" transform="translate(-72.8 -190.69)"/><path class="cls-1" d="M275.27,423.16a6.64,6.64,0,0,1,.16,2.67,21.49,21.49,0,0,0,.52,3.91c.46,2.15,1.25,4.4.91,6.62a8,8,0,0,0-.13,3.88,5.14,5.14,0,0,0,2.13,2.62,12.1,12.1,0,0,0,2.83,1.18,4.19,4.19,0,0,1,.9.38c.23.14.05,0,.24.16.36.35,0,0,0,.06.81,3.11,5.6,1.79,4.82-1.33a244.89,244.89,0,0,0-7.84-25.43L276.74,421c-.84-.27-.75-1-.53,0,.08.41.12.82.2,1.23a20.16,20.16,0,0,0,1.21,3.28,43.51,43.51,0,0,1,1.65,6.59l1.51,7a23.14,23.14,0,0,1,.79,7.26,2.51,2.51,0,0,0,2.5,2.5,2.57,2.57,0,0,0,2.5-2.5c.31-2.9-.37-5.77-1-8.59s-1.21-5.64-1.81-8.47c-.26-1.24-.52-2.48-.87-3.7s-.95-2.45-1.4-3.7c-.35-1-.36-2-.69-3a4.15,4.15,0,0,0-2.76-2.75,2.51,2.51,0,0,0-3.07,3.08,247.34,247.34,0,0,1,7.84,25.43l4.82-1.33c-.61-2.35-2.66-3.44-4.8-4.14a7.71,7.71,0,0,1-.92-.32c-.16-.07-.53-.4-.49-.25a9,9,0,0,1,.27-1.13,13.06,13.06,0,0,0,.21-2.16c0-2.49-.76-4.9-1.24-7.33s.07-5-1.11-7.35c-1.43-2.88-5.75-.35-4.31,2.53Z" transform="translate(-72.8 -190.69)"/><path class="cls-1" d="M279,430.18l.74,1.77a7,7,0,0,1,.55,1.68l-.09-.66a3.11,3.11,0,0,1,0,.61l.09-.66c0,.13-.06.25-.1.37a2.49,2.49,0,0,0,3.67,2.82l.5-.39a2.52,2.52,0,0,0,.65-1.1,5.06,5.06,0,0,0-.21-3.43c-.31-.79-.65-1.56-1-2.34a1.85,1.85,0,0,0-.45-.85,1.88,1.88,0,0,0-.7-.64,2.51,2.51,0,0,0-3.42.9l-.25.59a2.5,2.5,0,0,0,0,1.33Z" transform="translate(-72.8 -190.69)"/></g><g id="Layer_2" data-name="Layer 2"><path class="cls-6" d="M360.9,699.38s50.27-6.83,75,0l13.06,11.81a11.75,11.75,0,0,1-2.44,19.13l-17.84,9.33a7.06,7.06,0,0,1-9.22-2.47l-6.26-9.87-3.06-4.81,19.22-3-15.49,7" transform="translate(-72.8 -190.69)"/><polyline class="cls-8" points="339.43 532.73 349.98 530.93 340 534.53"/><path class="cls-5" d="M429.34,719.5" transform="translate(-72.8 -190.69)"/><path class="cls-5" d="M415.55,730.16" transform="translate(-72.8 -190.69)"/><path class="cls-6" d="M383,726.53l-15.5-7,19.22,3-3.05,4.81L377.52,737a7.34,7.34,0,0,1-9.59,2.57L350,730.17a11.52,11.52,0,0,1-2.39-18.76l13.31-12c24.7-6.83,75,0,75,0" transform="translate(-72.8 -190.69)"/><polyline class="cls-8" points="311.79 532.73 301.24 530.93 311.22 534.53"/><path class="cls-5" d="M367.47,719.5" transform="translate(-72.8 -190.69)"/><path class="cls-5" d="M381.26,730.16" transform="translate(-72.8 -190.69)"/><path class="cls-6" d="M398.19,726.36l.22,34.51s14-3.92,17.14-29.82" transform="translate(-72.8 -190.69)"/><path class="cls-6" d="M398.19,726.36,398,760.87S384.4,757,381.26,731.05" transform="translate(-72.8 -190.69)"/><path class="cls-9" d="M552.92,478.12c38,50.85-4.07,68.33-16.69,73.23s-21.72,11.56-32.93,21.37-11.56,25.93-18.92,41.7a31.46,31.46,0,0,1-25.53,18.35c-6.22.74-22.82-3.38-32.19-15.38-7.71-9.86-13.49-20.84-7.36-42.83,6.3-22.61,27.24-39.68,27.24-39.68s-6.48,18.79,2.19,25.36,25.64,10,39.28-26.67c12.22-32.78-12.79-52.24,32.59-89.87A121.34,121.34,0,0,1,546.22,429c11.91-4.92,24.73-7.19,27.72-7.89,0,0-73.3,41.2-52.42,80.41,9.27,17.42,26.43,8.23,31.79-2.1C557.36,491.61,553.82,480.31,552.92,478.12Z" transform="translate(-72.8 -190.69)"/><path class="cls-6" d="M466.25,631.07s3,19.25,19.53,18.82c17.75-.46,31.4-24.48,25.36-42.35s-9.33-23.65-4.34-33.9,5.43-8.35,5.43-8.35" transform="translate(-72.8 -190.69)"/><path class="cls-10" d="M531.12,553.52s18,33.29,7,63l-11.83,32.14" transform="translate(-72.8 -190.69)"/><path class="cls-10" d="M464.23,746.82C493,738.74,499,705.74,506,679.74c8-26,30.52-40,59.37-45.44,0,0,76-5.3,127-64.2,44.52-51.42-.39-100-17.08-142.43-16-40.73,4.38-83.21,25.23-91.18-42.72,34.29-22,87.06-17.87,95.12,23.91,40.73,55.83,89.27,23.48,135.25-38.23,54.34-93.68,68.68-132.14,76.94-13.65,2.61-25.3,4.43-36.3,13.42-9,7.33-14.7,16.79-18.55,27.59-4.5,12.63-6.76,25.89-12.21,38.14-10.13,22.8-25.63,40.09-43.55,57.13" transform="translate(-72.8 -190.69)"/><path class="cls-11" d="M444.7,762.35A61.59,61.59,0,0,1,455,770.5c4.24,4.35,7.15,9.71,7.22,10.6.16,1.84-3,59.91-17.74,67,2.72-10.51-.33-35.14-5.78-62.28a6.5,6.5,0,0,1,.53-4.2A100.24,100.24,0,0,0,444.7,762.35Z" transform="translate(-72.8 -190.69)"/><path class="cls-12" d="M412.43,785s4.9,4.15,4.29,7.44c-1.65,8.81-2.55,11.47-6.76,13.58,0,0,1.77-3.11-1-10.29-2.69-6.91,2.17-9.82,3.5-10.73" transform="translate(-72.8 -190.69)"/><path class="cls-12" d="M403.37,785.15s4.7,4.36,3.94,7.63c-2,8.72-2.18,8.47-4.86,12.44,0,0-.59-2.2-3.06-9.51-2.38-7,2.6-9.7,4-10.56" transform="translate(-72.8 -190.69)"/><path class="cls-3" d="M432.42,795.82s2.64-7.89,7.61-3.41" transform="translate(-72.8 -190.69)"/><path class="cls-13" d="M416.45,793.91s1.05-3.13,3-1.35" transform="translate(-72.8 -190.69)"/><path class="cls-4" d="M431.67,787.91s2.41-7.19,6.93-3.11" transform="translate(-72.8 -190.69)"/><path class="cls-14" d="M443.21,868.34s47.17-42.57,57.42-91.05c0,0,6.83,60.31-36.13,107.61,0,0-6.71,10.9-21.29-16.56" transform="translate(-72.8 -190.69)"/><path class="cls-12" d="M430.2,876.1a16.71,16.71,0,0,0,6.21-3.15c2.82-2.3,4.78-5.17,4.84-5.66.12-1,.73-28.64-7.69-36.35,1.64,5.76-3.7,18.75-7.58,33.43a3.07,3.07,0,0,0,.29,2.3A102.14,102.14,0,0,1,430.2,876.1Z" transform="translate(-72.8 -190.69)"/><path class="cls-12" d="M422.81,865.85S424.42,855.29,418,841c0,0-4.81,19.83-7.92,26.87,0,0,2.41,6.07,7.88,3C423,868,422.81,865.85,422.81,865.85Z" transform="translate(-72.8 -190.69)"/><path class="cls-12" d="M400.05,861a39.68,39.68,0,0,0,7.2-16.49s3.05,6.11,2.13,20.82c0,0-2.13,3.88-3.68,4.4C403.37,870.51,398.9,863.22,400.05,861Z" transform="translate(-72.8 -190.69)"/><path class="cls-5" d="M409.49,863.12s.27,1.9,1.27,1.22a2.71,2.71,0,0,0,1.05-1.22" transform="translate(-72.8 -190.69)"/><path class="cls-5" d="M423,863.57s.65,1.42,1.18,1.42.67,0,1.38-.82l.71-.79" transform="translate(-72.8 -190.69)"/><path class="cls-5" d="M441.3,861.77s-.34,2.67,3,3.46c2.2.53,4.74-2.54,4.74-2.54" transform="translate(-72.8 -190.69)"/><path class="cls-2" d="M486.2,755.77s-16.55,36.41-16.65,53.65c-.09,16.55,3,19.84,4.25,21.52" transform="translate(-72.8 -190.69)"/><path class="cls-6" d="M483.68,859.15c-.94,14.66-2.1,41.68-31.8,49.66-23.3,6.26-43-4.47-56-3.68" transform="translate(-72.8 -190.69)"/><path class="cls-10" d="M398.41,469s20.63-10.1,27.2-43.74,19.18-49.66,29.69-63.85c0,0-11.58,53.35-7.36,80.15,0,0,40.47-3.94,38.63-71.21s-3.15-77.26,15.5-105.9c0,0,2.37,66.48,7.36,70.68,0,0,60.37-86.68,43.88-141.37,0,0,32.55,77.88-7.62,155.56-35.73,69.11-21.18,88.85-21.18,88.85" transform="translate(-72.8 -190.69)"/><path class="cls-9" d="M242.68,478.05c-38,50.84,4.07,68.32,16.68,73.22s21.73,11.56,32.94,21.37,11.56,25.93,18.92,41.7a31.46,31.46,0,0,0,25.53,18.35c6.22.74,24.22-2.41,32.19-15.37,6.32-10.27,10.6-19.41,6.53-42.31-4.11-23.11-26.41-40.21-26.41-40.21s6.48,18.79-2.19,25.36-25.64,10-39.29-26.67c-12.21-32.78,12.8-52.24-32.58-89.87a121.34,121.34,0,0,0-25.62-14.71c-11.92-4.92-24.74-7.19-27.72-7.89,0,0,73.3,41.2,52.42,80.41-9.28,17.42-26.43,8.24-31.8-2.1C238.24,491.53,241.51,481.71,242.68,478.05Z" transform="translate(-72.8 -190.69)"/><path class="cls-6" d="M329.35,631s-3,19.26-19.53,18.82c-17.75-.46-31.4-24.48-25.36-42.35s9.33-23.65,4.34-33.9-5.43-8.35-5.43-8.35" transform="translate(-72.8 -190.69)"/><path class="cls-10" d="M269.27,648.58l-11.83-32.14c-10.94-29.71,7-63,7-63" transform="translate(-72.8 -190.69)"/><path class="cls-10" d="M331.36,746.74c-28.74-8.08-34.74-41.08-41.74-67.08-8-26-30.52-40-59.37-45.44,0,0-76-5.3-127-64.2-44.52-51.42.39-100,17.08-142.43,16-40.73-4.38-83.21-25.23-91.18,42.72,34.29,22,87.07,17.87,95.12C89.09,472.26,57.16,520.8,89.51,566.78c38.24,54.34,93.68,68.68,132.15,76.94,13.64,2.61,25.29,4.43,36.29,13.42,9,7.33,14.71,16.79,18.56,27.6,4.5,12.62,6.76,25.88,12.2,38.13,10.14,22.8,25.64,40.09,43.55,57.13" transform="translate(-72.8 -190.69)"/><path class="cls-11" d="M350.9,762.28a61,61,0,0,0-10.34,8.15c-4.25,4.34-7.15,9.7-7.22,10.59-.16,1.84,3,59.92,17.73,67-2.71-10.51.34-35.14,5.78-62.28a6.57,6.57,0,0,0-.52-4.2A99.42,99.42,0,0,1,350.9,762.28Z" transform="translate(-72.8 -190.69)"/><path class="cls-15" d="M373.07,779.12a35.94,35.94,0,0,0-6,4.75,19.5,19.5,0,0,0-4.21,6.18c-.09,1.07,1.76,34.93,10.34,39.06-1.58-6.13.19-20.48,3.37-36.3a3.75,3.75,0,0,0-.31-2.45A58.75,58.75,0,0,1,373.07,779.12Z" transform="translate(-72.8 -190.69)"/><path class="cls-12" d="M383.16,784.88s-4.89,4.15-4.28,7.44c1.64,8.81,2.54,11.47,6.76,13.58,0,0-1.77-3.11,1-10.29,2.69-6.91-2.17-9.82-3.51-10.73" transform="translate(-72.8 -190.69)"/><path class="cls-12" d="M392.68,785.06s-4.9,4.15-4.28,7.45c1.64,8.8,1.79,8.56,4.3,12.64,0,0,.68-2.17,3.48-9.36,2.69-6.9-2.17-9.81-3.5-10.73" transform="translate(-72.8 -190.69)"/><path class="cls-3" d="M363.18,795.74s-2.65-7.88-7.61-3.41" transform="translate(-72.8 -190.69)"/><path class="cls-5" d="M379.14,793.83s-1-3.13-3-1.35" transform="translate(-72.8 -190.69)"/><path class="cls-4" d="M363.93,787.83s-2.41-7.18-6.93-3.11" transform="translate(-72.8 -190.69)"/><path class="cls-14" d="M352.39,868.26s-47.17-42.56-57.42-91c0,0-6.83,60.31,36.13,107.61,0,0,6.7,10.9,21.29-16.56" transform="translate(-72.8 -190.69)"/><path class="cls-12" d="M365.39,876a16.71,16.71,0,0,1-6.2-3.15c-2.82-2.3-4.78-5.17-4.84-5.66-.12-1-.74-28.64,7.68-36.35-1.64,5.76,3.7,18.76,7.59,33.43a3.08,3.08,0,0,1-.3,2.3C367.06,871.29,365.39,876,365.39,876Z" transform="translate(-72.8 -190.69)"/><path class="cls-12" d="M372.78,865.77s-1.6-10.56,4.86-24.83c0,0,4.81,19.82,7.92,26.86,0,0-2.42,6.08-7.88,3C372.61,867.87,372.78,865.77,372.78,865.77Z" transform="translate(-72.8 -190.69)"/><path class="cls-12" d="M395.55,860.91a39.77,39.77,0,0,1-7.21-16.49s-3,6.11-2.12,20.82c0,0,2.12,3.88,3.68,4.4C392.22,870.43,396.7,863.15,395.55,860.91Z" transform="translate(-72.8 -190.69)"/><path class="cls-5" d="M386.11,863s-.27,1.9-1.27,1.22a2.73,2.73,0,0,1-1.06-1.22" transform="translate(-72.8 -190.69)"/><path class="cls-5" d="M372.62,863.49s-.66,1.42-1.18,1.42-.67,0-1.38-.81l-.71-.8" transform="translate(-72.8 -190.69)"/><path class="cls-5" d="M354.29,861.7s.34,2.66-3,3.45c-2.2.53-4.74-2.54-4.74-2.54" transform="translate(-72.8 -190.69)"/><path class="cls-2" d="M309.39,755.69S325.94,792.1,326,809.34c.1,16.55-3,19.84-4.24,21.52" transform="translate(-72.8 -190.69)"/><path class="cls-6" d="M311.92,859.07c.94,14.67,2.1,41.68,31.8,49.66,23.3,6.27,42.17-4.3,55.1-3.6" transform="translate(-72.8 -190.69)"/><path class="cls-6" d="M491.17,842.88s13.53,8.12,12.74,51.48c0,0-6.12-21.08-14.49-29.07,0,0,18.82,41.42-19.87,76.1,0,0,6-12.87,1.25-33.11,0,0-4.23,53.35-44.55,74.11,0,0,11.85-15.6,4.35-38.89,0,0-8.24,29.62-18.37,43.09-14,18.66-14.5,28.88-14.21,32.51" transform="translate(-72.8 -190.69)"/><path class="cls-6" d="M304.43,842.81s-13.53,8.11-12.74,51.47c0,0,6.12-21.08,14.49-29.07,0,0-18.83,41.42,19.87,76.11,0,0-6-12.88-1.25-33.11,0,0,4.23,53.34,44.55,74.1,0,0-11.85-15.59-4.35-38.89,0,0,8.24,29.62,18.37,43.09,14,18.66,14.95,29,14.65,32.59" transform="translate(-72.8 -190.69)"/><path class="cls-10" d="M398.41,469S376.56,458.83,370,425.2s-19.18-49.67-29.69-63.86c0,0,11.57,53.35,7.36,80.15,0,0-40.47-3.94-38.63-71.21s3.15-77.26-15.5-105.9c0,0-2.37,66.48-7.36,70.68,0,0-60.37-86.68-43.89-141.37,0,0-32.55,77.88,7.62,155.56,35.74,69.11,21.18,88.85,21.18,88.85" transform="translate(-72.8 -190.69)"/><path class="cls-2" d="M481.5,619.46" transform="translate(-72.8 -190.69)"/><path class="cls-4" d="M490.24,598.18" transform="translate(-72.8 -190.69)"/><path class="cls-4" d="M444.05,630.45" transform="translate(-72.8 -190.69)"/><path class="cls-4" d="M418.68,582.41" transform="translate(-72.8 -190.69)"/><path class="cls-16" d="M473.85,627.2c-36.22,11.37-67.41-13.16-36-73.13,0,0-.1,19.63,12.34,21.72,10.42,1.75,16-2.37,25.29-19.47" transform="translate(-72.8 -190.69)"/><path class="cls-17" d="M555,489s22.79,39.41-7.12,57" transform="translate(-72.8 -190.69)"/><path class="cls-17" d="M523.61,652.66" transform="translate(-72.8 -190.69)"/><path class="cls-17" d="M524.89,556.72" transform="translate(-72.8 -190.69)"/><path class="cls-16" d="M321.53,627.39c36.22,11.38,67.41-13.15,36-73.12,0,0,.1,19.62-12.34,21.72-10.42,1.75-16-2.37-25.29-19.47" transform="translate(-72.8 -190.69)"/><path class="cls-17" d="M240.77,489S218,528.4,247.89,546" transform="translate(-72.8 -190.69)"/><path class="cls-15" d="M422.53,779.2a35.06,35.06,0,0,1,6,4.75,19.6,19.6,0,0,1,4.22,6.18c.09,1.07-1.76,34.92-10.34,39.06,1.58-6.13-.2-20.48-3.37-36.3a3.84,3.84,0,0,1,.3-2.46A58.13,58.13,0,0,0,422.53,779.2Z" transform="translate(-72.8 -190.69)"/><path class="cls-5" d="M547,346.84s-46.52,84.34-39.41,109.21" transform="translate(-72.8 -190.69)"/><path class="cls-5" d="M247.89,346.84s46.52,84.34,39.4,109.21" transform="translate(-72.8 -190.69)"/><path class="cls-18" d="M520,558.68c-14.72,22.32-5.7,41.63-5.7,41.63s-12.7-15.51,2.6-39.68c.23-.37,3.14-2,3.37-2.35" transform="translate(-72.8 -190.69)"/><path class="cls-18" d="M275.16,558.68c14.73,22.32,5.7,41.63,5.7,41.63s12.71-15.51-2.59-39.68c-.23-.37-3.14-2-3.37-2.35" transform="translate(-72.8 -190.69)"/><path class="cls-19" d="M398.45,489.26s6-6.68,13.06-15.48c3.63-4.52,7.56-9.59,11.1-14.6,6.06-8.55,11-16.93,11.64-22.06a71.14,71.14,0,0,1,3,11.76c1.06,6.6,1.3,14.63-1.38,18.06,2.28.76,6.63-.73,14.08-2.69,9.74-2.56,20.49-7.2,32.17-21.15,8-9.59,12.66-20.8,18.59-36.28,11.38-29.69,10.51-33.67,16-47.08,0,0-7.53,60.28-25.23,93.68-5.14,9.69-12.79,16.65-17.56,18.75-7.62,3.35-29.3,7.12-48.42,22.69C410,507.42,397.6,534.3,398.45,554Z" transform="translate(-72.8 -190.69)"/><path class="cls-19" d="M398.45,489.26s-6-6.68-13.06-15.48c-3.64-4.52-7.56-9.59-11.11-14.6-6.06-8.55-11-16.93-11.63-22.06a70,70,0,0,0-3,11.76c-1.07,6.6-1.3,14.63,1.38,18.06-2.28.76-6.64-.73-14.08-2.69-9.74-2.56-20.49-7.2-32.18-21.15-8-9.59-12.66-20.8-18.58-36.28-11.38-29.69-10.51-33.67-16-47.08,0,0,7.52,60.28,25.23,93.68,5.13,9.69,12.79,16.65,17.56,18.75,7.62,3.35,29.29,7.12,48.42,22.69,15.43,12.56,27.84,39.44,27,59.11Z" transform="translate(-72.8 -190.69)"/><path class="cls-18" d="M398,886.21s15.37.79,24.13,4.56,17.74,6.74,24.66,6,19-6.39,19-6.39A103.88,103.88,0,0,1,455,897.77c-4.26,2.38-20.8,7-32.84,1.36-10.65-5-24.18-4.56-24.18-4.56Z" transform="translate(-72.8 -190.69)"/><path class="cls-18" d="M397.07,886.21s-15.37.79-24.13,4.56-17.74,6.74-24.66,6-19-6.39-19-6.39a103.88,103.88,0,0,0,10.73,7.44c4.26,2.38,20.8,7,32.85,1.36,10.64-5,24.17-4.56,24.17-4.56Z" transform="translate(-72.8 -190.69)"/><path class="cls-8" d="M420.88,909.74" transform="translate(-72.8 -190.69)"/><path class="cls-8" d="M400.44,894.63" transform="translate(-72.8 -190.69)"/><path class="cls-1" d="M479.9,666.88c-16.67,0-21.53-31.75-22.18-36.66l7.75,3.17c2.71,17.65,9.08,26.6,18.94,26.6,7.38,0,14.87-5.08,19.27-8.7C494.7,661.64,486.72,666.88,479.9,666.88Z" transform="translate(-72.8 -190.69)"/><path class="cls-1" d="M458.18,630.81l6.95,2.85c2.76,17.72,9.24,26.7,19.28,26.7,5.89,0,11.84-3.18,16.27-6.31-7.79,8.27-14.76,12.45-20.78,12.45-15.76,0-20.8-29.2-21.72-35.69m-.91-1.18s4.11,37.62,22.63,37.62c6.94,0,15.9-5.27,27.43-19.77,0,0-11.73,12.13-22.92,12.13-7.89,0-15.51-6-18.6-26.48l-8.54-3.5Z" transform="translate(-72.8 -190.69)"/><path class="cls-1" d="M316.72,666.88c-6.8,0-14.79-5.24-23.77-15.59,4.4,3.62,11.89,8.69,19.28,8.7h0c9.86,0,16.23-9,18.93-26.6l7.75-3.17c-.65,4.91-5.51,36.65-22.18,36.66Z" transform="translate(-72.8 -190.69)"/><path class="cls-1" d="M338.45,630.81c-.92,6.49-5.95,35.69-21.72,35.69-6,0-13-4.18-20.78-12.45,4.43,3.13,10.38,6.31,16.28,6.31,10,0,16.51-9,19.27-26.7l6.95-2.85m.91-1.18-8.54,3.5c-3.09,20.48-10.71,26.48-18.59,26.48-11.2,0-22.92-12.13-22.92-12.13,11.52,14.5,20.48,19.77,27.42,19.77,18.53,0,22.63-37.62,22.63-37.62Z" transform="translate(-72.8 -190.69)"/><path class="cls-1" d="M397.71,678c-2-2.19-8.73-8.53-17-8.53a15.62,15.62,0,0,0-2.47.19c-5.51.85-9.35,1.56-11.8,2,4.95-2.15,14.54-5.9,21-5.9a9.2,9.2,0,0,1,4,.75c5.8,2.85,6.3,4,6.34,4.15a.4.4,0,0,0,0,.15Z" transform="translate(-72.8 -190.69)"/><path class="cls-1" d="M387.46,665.39v.75a8.9,8.9,0,0,1,3.86.71c4.95,2.44,5.93,3.57,6.11,3.86v.11l-.08,6.21c-2.61-2.64-8.85-8-16.6-8a17.73,17.73,0,0,0-2.53.19c-3.35.53-6.07,1-8.24,1.38,5.18-2.06,12.35-4.48,17.48-4.48v-.75m0,0c-9.15,0-24.36,7.4-24.36,7.4s4.25-1.1,15.24-2.8a15.24,15.24,0,0,1,2.41-.19c9.83,0,17.33,9.12,17.33,9.12l.1-8.1s.92-1-6.53-4.64a9.62,9.62,0,0,0-4.19-.79Z" transform="translate(-72.8 -190.69)"/><path class="cls-1" d="M398.27,670.83a.4.4,0,0,0,0-.15c0-.18.54-1.3,6.34-4.15a9.2,9.2,0,0,1,4-.75c6.44,0,16,3.75,21,5.9-2.45-.49-6.29-1.2-11.8-2.06a16.9,16.9,0,0,0-2.47-.19c-8.23,0-14.9,6.34-16.95,8.52Z" transform="translate(-72.8 -190.69)"/><path class="cls-1" d="M408.61,666.15c5.13,0,12.3,2.42,17.48,4.48-2.17-.39-4.89-.86-8.24-1.38a17.73,17.73,0,0,0-2.53-.19c-7.75,0-14,5.33-16.58,8l-.1-6.2v-.1c.18-.29,1.16-1.43,6.11-3.86a8.9,8.9,0,0,1,3.86-.71m0-.75a9.47,9.47,0,0,0-4.19.79c-7.45,3.66-6.53,4.64-6.53,4.64l.12,8.08s7.48-9.1,17.31-9.1a15.33,15.33,0,0,1,2.41.19c11,1.7,15.24,2.8,15.24,2.8s-15.21-7.4-24.36-7.4Z" transform="translate(-72.8 -190.69)"/><path class="cls-1" d="M397.52,663.45c-1.57-1.64-5.78-5.44-11.07-5.44a11.22,11.22,0,0,0-1.64.13c-2.85.44-5,.82-6.6,1.12,3.44-1.42,8.89-3.4,12.67-3.4a5.94,5.94,0,0,1,2.6.48c3.49,1.71,4,2.47,4.11,2.63a.28.28,0,0,0,0,.09Z" transform="translate(-72.8 -190.69)"/><path class="cls-1" d="M390.88,656.23h0a5.69,5.69,0,0,1,2.44.44c2.93,1.44,3.7,2.17,3.88,2.39l0,3.5c-2-1.86-5.89-4.92-10.71-4.92a10.72,10.72,0,0,0-1.7.13l-2.78.45a29.67,29.67,0,0,1,8.91-2m0-.75c-6,0-16.07,4.88-16.07,4.88s2.8-.72,10.05-1.85a10.84,10.84,0,0,1,1.59-.12c6.49,0,11.44,6,11.44,6l.06-5.35s.61-.65-4.3-3.06a6.29,6.29,0,0,0-2.77-.52Z" transform="translate(-72.8 -190.69)"/><path class="cls-1" d="M398.14,659.06a.28.28,0,0,0,0-.09c.08-.16.61-.91,4.1-2.63a6,6,0,0,1,2.61-.48c3.78,0,9.23,2,12.66,3.41-1.58-.3-3.75-.68-6.59-1.12a10.11,10.11,0,0,0-1.65-.13c-5.28,0-9.49,3.79-11.06,5.42Z" transform="translate(-72.8 -190.69)"/><path class="cls-1" d="M404.84,656.24a29.7,29.7,0,0,1,8.91,2l-2.78-.44a10.85,10.85,0,0,0-1.71-.13c-4.82,0-8.75,3.05-10.69,4.9l-.05-3.48c.18-.22,1-1,3.88-2.39a5.55,5.55,0,0,1,2.44-.44m0-.75a6.26,6.26,0,0,0-2.77.52c-4.91,2.41-4.3,3.06-4.3,3.06l.07,5.33s4.94-6,11.42-6a9.62,9.62,0,0,1,1.59.12c7.25,1.12,10,1.85,10,1.85s-10-4.88-16.06-4.88Z" transform="translate(-72.8 -190.69)"/><path class="cls-1" d="M397.5,695.37c-2.4-2.59-11.13-11.15-22-11.15a20.91,20.91,0,0,0-3.16.24c-7.9,1.23-13.12,2.22-16.19,2.85,6-2.67,19.27-8,28-8a12,12,0,0,1,5.24,1c7.88,3.88,8.23,5.29,8.24,5.47a.35.35,0,0,0-.05.18Z" transform="translate(-72.8 -190.69)"/><path class="cls-1" d="M384.18,678.91v.75h0a11.64,11.64,0,0,1,5.07.94c6.78,3.33,7.85,4.81,8,5.12a1.1,1.1,0,0,0,0,.18l-.11,8.52c-3.08-3.2-11.3-10.58-21.6-10.58a21.59,21.59,0,0,0-3.21.25c-5.46.85-9.64,1.58-12.71,2.16,6.72-2.78,17.25-6.59,24.57-6.59v-.75m0,0c-11.79,0-31.38,9.53-31.38,9.53s5.47-1.41,19.63-3.61a20.63,20.63,0,0,1,3.1-.24c12.67,0,22.33,11.75,22.33,11.75l.13-10.43s1.19-1.27-8.41-6a12.25,12.25,0,0,0-5.4-1Z" transform="translate(-72.8 -190.69)"/><path class="cls-1" d="M398,685.92a.41.41,0,0,0-.05-.18c0-.17.36-1.59,8.24-5.47a12.16,12.16,0,0,1,5.24-1c8.74,0,22,5.35,28,8-3.06-.63-8.29-1.62-16.19-2.85a20.91,20.91,0,0,0-3.16-.24c-10.83,0-19.55,8.54-21.94,11.13Z" transform="translate(-72.8 -190.69)"/><path class="cls-1" d="M411.43,679.67c7.33,0,17.86,3.81,24.58,6.59-3.08-.58-7.26-1.31-12.71-2.16a21.72,21.72,0,0,0-3.22-.25c-10.3,0-18.5,7.37-21.58,10.57l-.12-8.51a1.13,1.13,0,0,0,0-.18c.16-.31,1.23-1.79,8-5.12a11.67,11.67,0,0,1,5.07-.94m0-.75a12.25,12.25,0,0,0-5.4,1c-9.6,4.71-8.4,6-8.4,6l.15,10.41s9.63-11.73,22.3-11.73a20.63,20.63,0,0,1,3.1.24c14.16,2.2,19.63,3.62,19.63,3.62s-19.59-9.54-31.38-9.54Z" transform="translate(-72.8 -190.69)"/><path class="cls-1" d="M355.75,632.48a45.13,45.13,0,0,1-10.46-1.26c4.35-.14,21-1.54,31.35-14.07,7-8.45,9.6-20.07,7.72-34.59,2.68,9.42,6.94,30.9-5.84,41.87C372.3,629.77,364.64,632.48,355.75,632.48Z" transform="translate(-72.8 -190.69)"/><path class="cls-1" d="M385.2,587.43c2.34,10.55,3.87,27.46-6.93,36.72-6.15,5.27-13.73,8-22.52,8a44.53,44.53,0,0,1-7.71-.69c6.53-.63,20-3.26,28.89-14,6.27-7.55,9-17.6,8.27-30m-2-9.62c8.9,47.32-28.61,53.05-38.8,53.05a11.42,11.42,0,0,1-2.3-.16,43.15,43.15,0,0,0,13.63,2.15,34.58,34.58,0,0,0,23-8.14c17-14.57,4.46-46.9,4.46-46.9Z" transform="translate(-72.8 -190.69)"/><path class="cls-1" d="M437.06,631.87c-8.89,0-16.55-2.71-22.77-8-12.79-11-8.52-32.45-5.84-41.87-1.88,14.53.71,26.15,7.72,34.59,10.39,12.54,27,13.93,31.34,14.07a45,45,0,0,1-10.45,1.26Z" transform="translate(-72.8 -190.69)"/><path class="cls-1" d="M407.6,586.82c-.76,12.36,2,22.41,8.28,30,8.92,10.76,22.36,13.39,28.89,14a44.62,44.62,0,0,1-7.71.69c-8.8,0-16.37-2.67-22.53-8-10.79-9.26-9.26-26.16-6.93-36.72m2-9.61Zm0,0s-12.53,32.32,4.45,46.9a34.66,34.66,0,0,0,23,8.13,43.15,43.15,0,0,0,13.63-2.15,11.16,11.16,0,0,1-2.3.17c-10.19,0-47.7-5.74-38.8-53Z" transform="translate(-72.8 -190.69)"/><path class="cls-1" d="M398,977.47A102.72,102.72,0,0,0,358.28,913l21.91-5.34,18.62-2.19,41.63,7-1,.5a103.24,103.24,0,0,0-39.21,62.53l-1.38,7Z" transform="translate(-72.8 -190.69)"/><path class="cls-1" d="M398.8,905.8l18.05,3,22.39,3.76-.1.06a103.61,103.61,0,0,0-39.29,62.72l-1,5-.53-3a103.05,103.05,0,0,0-39.19-64.28L380.23,908l18.57-2.19m0-.76-18.72,2.21-22.69,5.52h0a102.79,102.79,0,0,1,40.18,64.77l1.23,7,1.77-9a102.94,102.94,0,0,1,39-62.26l2-1L417,908.09,398.82,905Z" transform="translate(-72.8 -190.69)"/><path class="cls-1" d="M444.12,955.12c3.05-7.71,9.14-28.38-5.54-43.67l23.59-5.79A79.54,79.54,0,0,1,444.12,955.12Z" transform="translate(-72.8 -190.69)"/><path class="cls-1" d="M461.68,906.3a79.28,79.28,0,0,1-16,46,56.18,56.18,0,0,0,2.45-10.49c1.55-11.86-1.44-22.23-8.63-30.1l22.15-5.43m1-1.27-25.05,6.15c19.18,19,4.72,46.77,4.72,46.77,22-24.35,20.33-52.92,20.33-52.92Z" transform="translate(-72.8 -190.69)"/><path class="cls-1" d="M354.56,955.12a79.67,79.67,0,0,1-18.05-49.46l23.6,5.79C345.43,926.74,351.51,947.41,354.56,955.12Z" transform="translate(-72.8 -190.69)"/><path class="cls-1" d="M337,906.3l22.15,5.43C352,919.6,349,930,350.53,941.83A55.87,55.87,0,0,0,353,952.31a79.3,79.3,0,0,1-16-46M336,905S334.37,933.6,356.35,958c0,0-14.46-27.74,4.73-46.77L336,905Z" transform="translate(-72.8 -190.69)"/><path class="cls-1" d="M480.25,919.86A58.45,58.45,0,0,0,477.57,892l5.61-19.5C485.11,878.8,491.37,902.84,480.25,919.86Z" transform="translate(-72.8 -190.69)"/><path class="cls-1" d="M483.19,874.34c2.14,7.67,6.44,27.79-2.12,43.18a58,58,0,0,0-3-25.5l5.1-17.68m0-3.5L477,892.06a56.47,56.47,0,0,1,2.3,30c15.14-20,3.81-51.17,3.81-51.17Z" transform="translate(-72.8 -190.69)"/><path class="cls-1" d="M315.62,920.35c-11.13-17-4.86-41.06-2.93-47.31l5.61,19.5A58.15,58.15,0,0,0,315.62,920.35Z" transform="translate(-72.8 -190.69)"/><path class="cls-1" d="M312.68,874.83l5.09,17.69a58,58,0,0,0-3,25.5c-8.56-15.39-4.26-35.52-2.11-43.19m0-3.5s-11.32,31.14,3.81,51.18a56.51,56.51,0,0,1,2.3-30l-6.11-21.22Z" transform="translate(-72.8 -190.69)"/><path class="cls-20" d="M438.16,736.71c4.07-1.63,10.61-5.25,14-12.33A24,24,0,0,0,454,710.22a24.49,24.49,0,0,1,.92,12.8c-1.2,5.08-4.63,9.11-10.2,12l-.16.1h0a9.68,9.68,0,0,1-3.24,1C440.09,736.38,439.06,736.56,438.16,736.71Z" transform="translate(-72.8 -190.69)"/><path class="cls-1" d="M453.93,722.71l0,.08a15.93,15.93,0,0,1-6.13,9.1,23.27,23.27,0,0,0,5.27-7.08c.33-.69.62-1.39.88-2.1m-5.31-25.56c16,32.8-14.17,39.75-14.17,39.75-.16,0-3.88,1.46-1.43,1.46a56.74,56.74,0,0,0,8.44-1.23,9.25,9.25,0,0,0,3.68-1.24c23.05-11.91,3.48-38.74,3.48-38.74Z" transform="translate(-72.8 -190.69)"/><path class="cls-20" d="M358.9,736.71c-.88-.15-1.91-.33-3.09-.56a9.4,9.4,0,0,1-3.26-1l-.15-.09c-5.57-2.88-9-6.91-10.2-12a24.49,24.49,0,0,1,.92-12.8,24.1,24.1,0,0,0,1.81,14.16C348.32,731.47,354.85,735.08,358.9,736.71Z" transform="translate(-72.8 -190.69)"/><path class="cls-1" d="M343.15,722.71c.26.71.55,1.41.88,2.1a23.44,23.44,0,0,0,5.27,7.08,15.89,15.89,0,0,1-6.12-9.09l0-.09m5.31-25.56h0Zm0,0s-19.57,26.83,3.48,38.74a9.25,9.25,0,0,0,3.68,1.24,56.92,56.92,0,0,0,8.44,1.23c2.45,0-1.27-1.44-1.43-1.46,0,0-30.14-6.95-14.17-39.75Z" transform="translate(-72.8 -190.69)"/><path class="cls-20" d="M437.94,751.36a30.43,30.43,0,0,1-6.26-.69l-.19,0a11.33,11.33,0,0,1-4-1.55c-2.35-1.27-4.1-2.26-5.4-3a37.66,37.66,0,0,0,13,2.43c8.36,0,18.76-3.27,25.73-16.87C457.66,740.91,451.17,751.36,437.94,751.36Z" transform="translate(-72.8 -190.69)"/><path class="cls-1" d="M454.53,742a19.9,19.9,0,0,1-16.59,8.41,29.71,29.71,0,0,1-6.05-.67,1.18,1.18,0,0,0-.3,0h0a7.81,7.81,0,0,1-1.76-.56,35.27,35.27,0,0,0,5.29.41A27.53,27.53,0,0,0,454.53,742m10.2-24.35Zm0,0c-5.77,24.56-19.13,29.9-29.66,29.9a36.34,36.34,0,0,1-14.51-3.16,11.23,11.23,0,0,0-2.74-.67c-1.12,0-.37,1.13,9.21,6.31,3.05,1.65,4.44,1.67,4.44,1.67a31.26,31.26,0,0,0,6.47.71c24.92,0,26.79-34.76,26.79-34.76Z" transform="translate(-72.8 -190.69)"/><path class="cls-20" d="M358.7,751.32c-13.22,0-19.71-10.45-22.87-19.73,7,13.6,17.37,16.87,25.74,16.87h0a37.59,37.59,0,0,0,13-2.43c-1.31.77-3.06,1.76-5.41,3a11.25,11.25,0,0,1-4,1.55l-.17,0a30.5,30.5,0,0,1-6.26.69Z" transform="translate(-72.8 -190.69)"/><path class="cls-1" d="M342.12,741.91a27.51,27.51,0,0,0,19.45,7.55,35.4,35.4,0,0,0,5.3-.41,8,8,0,0,1-1.76.56h-.06a1.17,1.17,0,0,0-.29,0,29.19,29.19,0,0,1-6.06.67,19.89,19.89,0,0,1-16.58-8.41m-10.2-24.35s1.87,34.76,26.78,34.76a31.12,31.12,0,0,0,6.47-.71s1.39,0,4.44-1.67c9.58-5.18,10.34-6.3,9.22-6.3a11.56,11.56,0,0,0-2.75.66,36.34,36.34,0,0,1-14.51,3.16c-10.52,0-23.88-5.34-29.65-29.9Z" transform="translate(-72.8 -190.69)"/><path class="cls-1" d="M373.09,629.79a27.89,27.89,0,0,1-5.55-.57c3.75-.27,12.85-1.69,18.77-8.83,4.13-5,5.83-11.67,5.08-20,1.6,6.5,3.14,18.15-4.1,24.36A21.16,21.16,0,0,1,373.09,629.79Z" transform="translate(-72.8 -190.69)"/><path class="cls-1" d="M391.93,605c.95,6.4.75,14.63-4.88,19.46a20.8,20.8,0,0,1-14,4.93,26.38,26.38,0,0,1-2.76-.14c4.49-.73,11.43-2.8,16.27-8.64,3.39-4.08,5.17-9.31,5.33-15.61m-1.59-9.41c5.58,29.71-18,33.3-24.37,33.3a6.88,6.88,0,0,1-1.44-.1,27.09,27.09,0,0,0,8.56,1.35,21.75,21.75,0,0,0,14.45-5.11c10.66-9.15,2.8-29.44,2.8-29.44Z" transform="translate(-72.8 -190.69)"/><path class="cls-1" d="M420,629.79a21.18,21.18,0,0,1-14.21-5c-7.24-6.21-5.7-17.86-4.09-24.36-.75,8.31.95,15,5.07,20,5.93,7.14,15,8.56,18.77,8.83a27.78,27.78,0,0,1-5.54.57Z" transform="translate(-72.8 -190.69)"/><path class="cls-1" d="M401.15,605c.16,6.3,1.94,11.53,5.33,15.61,4.84,5.84,11.77,7.91,16.27,8.64a26.52,26.52,0,0,1-2.76.14,20.8,20.8,0,0,1-14-4.93c-5.63-4.83-5.83-13.06-4.88-19.46m1.59-9.41h0Zm0,0s-7.87,20.29,2.8,29.44A21.75,21.75,0,0,0,420,630.16a27.09,27.09,0,0,0,8.56-1.35,6.88,6.88,0,0,1-1.44.1c-6.4,0-29.95-3.59-24.37-33.3Z" transform="translate(-72.8 -190.69)"/><path class="cls-20" d="M424.5,659.44a62,62,0,0,0-9.91-8.15,26.59,26.59,0,0,1,4.21,2.86A73.55,73.55,0,0,1,424.5,659.44Z" transform="translate(-72.8 -190.69)"/><path class="cls-1" d="M403.53,647.35a14.2,14.2,0,0,0-2.47.18c21.77.46,45.38,43.2,45.38,43.2s-9.39-22.73-27-37.35a24.92,24.92,0,0,0-15.91-6Z" transform="translate(-72.8 -190.69)"/><path class="cls-20" d="M371.5,659.44a75.42,75.42,0,0,1,5.7-5.29,26.59,26.59,0,0,1,4.21-2.86A62.45,62.45,0,0,0,371.5,659.44Z" transform="translate(-72.8 -190.69)"/><path class="cls-1" d="M392.47,647.35a24.88,24.88,0,0,0-15.9,6c-17.62,14.62-27,37.35-27,37.35s23.61-42.74,45.38-43.2a14.2,14.2,0,0,0-2.47-.18Z" transform="translate(-72.8 -190.69)"/><path class="cls-1" d="M478.45,675.37a19.29,19.29,0,0,1-3.46-.32c-8.76-1.59-13.06-11.6-14.89-17.69,5.83,12.21,14.37,14.93,20.83,14.93a28.7,28.7,0,0,0,12.14-2.89c-2.74,2.4-7.95,6-14.62,6Z" transform="translate(-72.8 -190.69)"/><path class="cls-1" d="M462,661.52c5.73,9,13.17,11.15,19,11.15a28.42,28.42,0,0,0,9.73-1.84A21.32,21.32,0,0,1,478.45,675a19.54,19.54,0,0,1-3.4-.31c-6.73-1.23-10.78-7.58-13.08-13.17m-3.39-8.82s3.26,20.34,16.34,22.72a19,19,0,0,0,3.53.33c10.31,0,17.06-8.24,17.06-8.24-.74.74-7.06,4.41-14.58,4.41-7.81,0-16.9-3.95-22.35-19.22Z" transform="translate(-72.8 -190.69)"/><path class="cls-1" d="M318.46,675.37c-6.67,0-11.87-3.57-14.61-6A28.62,28.62,0,0,0,316,672.29c6.45,0,15-2.72,20.83-14.93-1.83,6.09-6.13,16.1-14.89,17.69A19.4,19.4,0,0,1,318.46,675.37Z" transform="translate(-72.8 -190.69)"/><path class="cls-1" d="M335,661.52c-2.3,5.59-6.35,11.94-13.09,13.17a19.54,19.54,0,0,1-3.4.31,21.31,21.31,0,0,1-12.2-4.17,28.33,28.33,0,0,0,9.73,1.84c5.79,0,13.23-2.15,19-11.15m3.39-8.82C332.89,668,323.8,671.92,316,671.92c-7.52,0-13.85-3.67-14.58-4.41,0,0,6.75,8.24,17,8.24a19,19,0,0,0,3.54-.33c13.08-2.38,16.34-22.72,16.34-22.72Z" transform="translate(-72.8 -190.69)"/></g><g id="Layer_6" data-name="Layer 6"><path class="cls-1" d="M418,793.71l.41-1a.5.5,0,0,0-.73-.56l-.1.07a.46.46,0,0,0-.13.22l-.41,1.05a.5.5,0,0,0,.34.61.48.48,0,0,0,.39,0l.1-.08a.45.45,0,0,0,.13-.22Z" transform="translate(-72.8 -190.69)"/></g></svg>